<svg aria-hidden="true" style="position:absolute;width:0;height:0;overflow:hidden" xmlns="http://www.w3.org/2000/svg"><defs>
<symbol id="icon-customer-house" viewBox="0 0 32 32">
<path fill="#d31342" style="fill:var(--color3, #d31342)" d="M31.6 15.432a1.357 1.357 0 0 0-.122-2.032l-.003-.002L17.174 1.723a1.869 1.869 0 0 0-1.146-.389c-.448 0-.86.157-1.183.419l.004-.003L.5 14.017a1.348 1.348 0 0 0-.07 2.037l.001.001.36.347c.595.581 1.56.651 2.152.155l1.072-.896v13.117c0 .803.701 1.456 1.563 1.456h5.592c.864 0 1.563-.653 1.563-1.456v-9.176h7.133v9.208a1.42 1.42 0 0 0 1.421 1.421l.048-.001h-.002 5.928c.861 0 1.56-.651 1.56-1.456V15.846s.299.24.664.541c.363.299 1.131.059 1.709-.536l.408-.419z"/>
</symbol>
<symbol id="icon-customer-quotation-marks" viewBox="0 0 32 32" width="54" height="40">
<path fill="#e1e1e1" style="fill:var(--color4, #e1e1e1)" d="M23.714 4.148c1.428 0 2.777.385 4.047 1.156s2.302 1.879 3.095 3.324c.762 1.445 1.143 3.148 1.143 5.107s-.476 3.87-1.428 5.733c-.318.674-.889 1.541-1.715 2.601a47.007 47.007 0 0 1-2.38 2.746l-3 3.035-2.143-3.565a16.477 16.477 0 0 0 3.931-3.442l.022-.027C26.429 19.467 27 18.231 27 17.106c0-.578-.127-1.044-.38-1.397a6.194 6.194 0 0 1-3.714 1.205c-.984 0-1.921-.305-2.809-.916a6.394 6.394 0 0 1-2.174-2.28l-.016-.032c-.571-.932-.857-1.895-.857-2.891 0-1.125.333-2.2 1-3.228a7.635 7.635 0 0 1 2.491-2.486l.033-.019c1.015-.61 2.062-.916 3.142-.916zm-17.095 0c1.428 0 2.777.385 4.047 1.156s2.302 1.879 3.095 3.324c.762 1.445 1.143 3.148 1.143 5.107 0 1.381-.175 2.617-.524 3.71-.35 1.124-.952 2.296-1.81 3.517-.825 1.156-1.603 2.12-2.333 2.891-.73.803-2 2.136-3.81 3.999l-2.143-3.565a16.477 16.477 0 0 0 3.931-3.442l.022-.027c1.143-1.349 1.714-2.585 1.714-3.71 0-.578-.127-1.044-.381-1.397a6.194 6.194 0 0 1-3.714 1.205c-.984 0-1.921-.305-2.809-.916a6.394 6.394 0 0 1-2.174-2.28l-.016-.032C.286 12.756 0 11.793 0 10.797c0-1.125.318-2.2.952-3.228a7.635 7.635 0 0 1 2.491-2.486l.033-.019c1.015-.61 2.062-.916 3.143-.916z"/>
</symbol>
</defs>
</svg>
